# xmcd
#
# Track frame offsets:
#	150
#	31318
#	63952
#	96558
#	141556
#	173998
#	209639
#	224262
#	253717
#
# Disc length: 3840 seconds
#
# Revision: 0
# Processed by: cddbd v1.5.2PL0 Copyright (c) Steve Scherf et al.
# Submitted via: EasyCDDAExtractor 15.2.5.1
#
DISCID=910efe09
DTITLE=9DW - RMX 1/2
DYEAR=1900
DGENRE=
TTITLE0=STONE AND FRUITS [HATCHBACK - ASTEROID and CANTALOUPE MIX]
TTITLE1=FIND YOUR LOVE [WINDSURF - NICE CUE MIX]
TTITLE2=POSSE [BEAT BROKER - CALIFORNIA CLUB MIX]
TTITLE3=S.E.V [RAY MANG REMIX]
TTITLE4=BLACK COFFEE [EDDIE C - BLACK DUB MIX]
TTITLE5=S.E.V [MAX ESSA - HOUSE NOT HOUSE MIX]
TTITLE6=BEGIN TO SING FOR APPETITE [MADDEN BEAT REMIX]
TTITLE7=SYNTHETIC AVENUES [EDDIE C REMIX]
TTITLE8=S.E.V [MAX ESSA - EUROPEAN VACATION MIX]
EXTD=
EXTT0=
EXTT1=
EXTT2=
EXTT3=
EXTT4=
EXTT5=
EXTT6=
EXTT7=
EXTT8=
PLAYORDER=
